<?xml version="1.0" encoding="UTF-8" standalone="no"?>
<svg
   version="1.1"
   width="642.165"
   height="182.282"
   viewBox="0 0 642.165 182.282"
   id="svg78"
   sodipodi:docname="UAI_bw_CMYK_EN.svg"
   inkscape:version="1.4.2 (ebf0e94, 2025-05-08)"
   xmlns:inkscape="http://www.inkscape.org/namespaces/inkscape"
   xmlns:sodipodi="http://sodipodi.sourceforge.net/DTD/sodipodi-0.dtd"
   xmlns="http://www.w3.org/2000/svg"
   xmlns:svg="http://www.w3.org/2000/svg">
  <sodipodi:namedview
     id="namedview78"
     pagecolor="#ffffff"
     bordercolor="#000000"
     borderopacity="0.25"
     inkscape:showpageshadow="2"
     inkscape:pageopacity="0.0"
     inkscape:pagecheckerboard="0"
     inkscape:deskcolor="#d1d1d1"
     inkscape:zoom="1.9523025"
     inkscape:cx="181.83657"
     inkscape:cy="156.22579"
     inkscape:window-width="1920"
     inkscape:window-height="1043"
     inkscape:window-x="2560"
     inkscape:window-y="157"
     inkscape:window-maximized="1"
     inkscape:current-layer="g77" />
  <defs
     id="defs1">
    <clipPath
       id="clip_0">
      <path
         transform="matrix(1,0,0,-1,0,182.282)"
         d="M0 182.282H642.165V0H0Z"
         id="path1" />
    </clipPath>
  </defs>
  <g
     inkscape:groupmode="layer"
     inkscape:label="Vrstva 1"
     id="g78">
    <path
       transform="matrix(1,0,0,-1,0,182.282)"
       d="M603.832 41.65H331.80397V73.643009H603.832ZM277.166 140.561H391.498V108.651H277.166ZM543.165 76.567H367.83198V105.643009H543.165ZM546.165 76.644V108.644H394.498V143.561H147.774L147.667 38.679H147.774L328.165 38.65H606.832V76.644Z"
       fill="#231f20"
       id="path2"
       style="fill:#000000;fill-opacity:1" />
    <path
       transform="matrix(1,0,0,-1,0,182.282)"
       d="M277.166 108.65H391.498V140.56H277.166Z"
       fill="#ffffff"
       id="path3" />
    <path
       transform="matrix(1,0,0,-1,364.394,108.7146)"
       d="M0 0V.076H-32.591V-31.917H239.437V.076H181.905V0Z"
       fill="#ffffff"
       id="path4" />
    <path
       transform="matrix(1,0,0,-1,0,182.282)"
       d="M543.165 105.644H367.83198V76.56799H543.165Z"
       fill="#ffffff"
       id="path5" />
    <path
       transform="matrix(1,0,0,-1,0,182.282)"
       d="M38.832 38.679H143.714V143.561H38.832Z"
       fill="#231f20"
       id="path6"
       style="fill:#000000;fill-opacity:1" />
    <path
       transform="matrix(1,0,0,-1,0,182.282)"
       d="M288.905 129.912H291.746V117.560009H288.905ZM288.905 134.854H291.746V132.013H288.905Z"
       fill="#231f20"
       id="path7" />
    <g
       clip-path="url(#clip_0)"
       id="g77">
      <path
         transform="matrix(1,0,0,-1,300.7114,54.5437)"
         d="M0 0C-1.334 0-2.224-.889-2.224-2.223V-10.178H-5.064V2.174H-2.471L-2.224 .865H-2.125C-1.359 1.729-.321 2.348 1.309 2.348 3.829 2.348 5.311 1.038 5.311-1.778V-10.178H2.47V-1.482C2.47-.593 1.877 0 .988 0Z"
         fill="#231f20"
         id="path8" />
      <path
         transform="matrix(1,0,0,-1,315.7036,59.7556)"
         d="M0 0-2.47 .197C-4.471 .37-5.78 1.729-5.78 3.557V3.928C-5.78 6.102-4.372 7.56-.593 7.56 2.94 7.56 4.102 6.102 4.102 3.434H1.26V3.729C1.26 4.619 .791 5.212-.346 5.212H-1.457C-2.322 5.212-3.014 4.891-3.014 3.928-3.014 3.014-2.544 2.643-1.433 2.544L1.038 2.347C3.286 2.149 4.349 .691 4.349-1.137V-1.507C4.349-3.656 2.94-5.139-.84-5.139-4.866-5.139-6.027-3.682-6.027-1.013H-3.187V-1.31C-3.187-2.199-2.717-2.792-1.581-2.792H.025C.815-2.792 1.507-2.348 1.507-1.434 1.507-.568 1.161-.1 0 0"
         fill="#231f20"
         id="path9" />
      <path
         transform="matrix(1,0,0,-1,322.4702,52.369905)"
         d="M0 0H1.977V2.965L4.817 3.706V0H7.658V-2.347H4.817V-8.893C4.817-9.511 5.262-10.005 5.929-10.005H7.658V-12.352H5.78C2.939-12.352 1.977-10.894 1.977-8.275V-2.347H0Z"
         fill="#231f20"
         id="path10" />
      <path
         transform="matrix(1,0,0,-1,0,182.282)"
         d="M333.042 129.912H335.883V117.560009H333.042ZM333.042 134.854H335.883V132.013H333.042Z"
         fill="#231f20"
         id="path11" />
      <path
         transform="matrix(1,0,0,-1,338.5493,52.369905)"
         d="M0 0H1.977V2.965L4.817 3.706V0H7.658V-2.347H4.817V-8.893C4.817-9.511 5.262-10.005 5.929-10.005H7.658V-12.352H5.78C2.939-12.352 1.977-10.894 1.977-8.275V-2.347H0Z"
         fill="#231f20"
         id="path12" />
      <path
         transform="matrix(1,0,0,-1,354.4321,62.5476)"
         d="M0 0C1.334 0 2.223 .89 2.223 2.224V10.178H5.064V-2.174H2.47L2.223-.864H2.124C1.358-1.729 .32-2.347-1.31-2.347-3.829-2.347-5.312-1.037-5.312 1.779V10.178H-2.471V1.482C-2.471 .593-1.878 0-.988 0Z"
         fill="#231f20"
         id="path13" />
      <path
         transform="matrix(1,0,0,-1,362.1616,52.369905)"
         d="M0 0H1.977V2.965L4.817 3.706V0H7.658V-2.347H4.817V-8.893C4.817-9.511 5.262-10.005 5.929-10.005H7.658V-12.352H5.78C2.939-12.352 1.977-10.894 1.977-8.275V-2.347H0Z"
         fill="#231f20"
         id="path14" />
      <path
         transform="matrix(1,0,0,-1,380.144,56.0261)"
         d="M0 0C0 .89-.47 1.482-1.358 1.482H-3.212C-4.101 1.482-4.694 .89-4.694 0V-1.21H0ZM-4.694-3.408V-5.039C-4.694-5.929-4.101-6.521-3.212-6.521H-1.358C-.47-6.521 0-5.929 0-5.039V-4.742H2.841C2.841-7.411 1.68-8.868-2.224-8.868-6.127-8.868-7.535-7.411-7.535-4.742V-.296C-7.535 2.372-6.127 3.83-2.224 3.83 1.433 3.83 2.841 2.372 2.841-.296V-3.408Z"
         fill="#231f20"
         id="path15" />
      <path
         transform="matrix(1,0,0,-1,348.2466,127.27319)"
         d="M0 0C-1.581 0-2.545-.371-2.545-1.655-2.545-2.545-2.075-3.113-.89-3.113H-.47C1.211-3.113 2.248-1.977 2.248-.767V0ZM2.248 3.038C2.248 4.298 1.655 4.891 .396 4.891H-.47C-1.605 4.891-2.075 4.298-2.075 3.408V3.112H-4.916C-4.916 5.78-3.755 7.238 .024 7.238 3.681 7.238 5.089 5.657 5.089 2.741V-5.287H2.495L2.248-3.854H2.149C1.384-4.719 .47-5.46-1.358-5.46-3.903-5.46-5.336-4.076-5.336-1.878-5.336 .691-3.706 2.198 .148 2.198H2.248Z"
         fill="#231f20"
         id="path16" />
      <path
         transform="matrix(1,0,0,-1,362.3013,122.3826)"
         d="M0 0C-1.334 0-2.224-.889-2.224-2.223V-10.178H-5.064V2.174H-2.471L-2.224 .865H-2.125C-1.359 1.729-.321 2.348 1.309 2.348 3.829 2.348 5.311 1.038 5.311-1.778V-10.178H2.47V-1.482C2.47-.593 1.877 0 .988 0Z"
         fill="#231f20"
         id="path17" />
      <path
         transform="matrix(1,0,0,-1,374.23,123.865)"
         d="M0 0V-5.039C0-5.929 .594-6.521 1.482-6.521H2.471C3.805-6.521 4.694-5.632 4.694-4.298V-.74C4.694 .594 3.805 1.482 2.471 1.482H1.482C.594 1.482 0 .89 0 0M4.596 2.348H4.694V8.598H7.535V-8.695H4.941L4.694-7.386H4.596C3.829-8.251 2.792-8.868 1.161-8.868-1.358-8.868-2.841-7.559-2.841-4.742V-.296C-2.841 2.521-1.358 3.83 1.161 3.83 2.792 3.83 3.829 3.212 4.596 2.348"
         fill="#231f20"
         id="path18" />
      <path
         transform="matrix(1,0,0,-1,399.2017,123.865)"
         d="M0 0C0 .89-.47 1.482-1.605 1.482H-2.965C-3.854 1.482-4.447 .89-4.447 0V-5.039C-4.447-5.929-3.854-6.521-2.965-6.521H-1.605C-.47-6.521 0-5.929 0-5.039V-4.496H2.841V-4.742C2.841-7.411 1.68-8.868-2.1-8.868-5.88-8.868-7.288-7.411-7.288-4.742V-.296C-7.288 2.372-5.88 3.83-2.1 3.83 1.68 3.83 2.841 2.372 2.841-.296V-.543H0Z"
         fill="#231f20"
         id="path19" />
      <path
         transform="matrix(1,0,0,-1,412.8608,123.865)"
         d="M0 0C0 .89-.593 1.482-1.482 1.482H-3.212C-4.101 1.482-4.694 .89-4.694 0V-5.039C-4.694-5.929-4.101-6.521-3.212-6.521H-1.482C-.593-6.521 0-5.929 0-5.039ZM-7.535-4.742V-.296C-7.535 2.372-6.127 3.83-2.347 3.83 1.433 3.83 2.841 2.372 2.841-.296V-4.742C2.841-7.411 1.433-8.868-2.347-8.868-6.127-8.868-7.535-7.411-7.535-4.742"
         fill="#231f20"
         id="path20" />
      <path
         transform="matrix(1,0,0,-1,429.3608,132.5603)"
         d="M0 0H-2.842V8.597C-2.842 9.486-3.435 10.079-4.323 10.079H-4.817C-6.151 10.079-7.041 9.189-7.041 7.855V0H-9.882V12.352H-7.288L-7.041 11.043H-6.942C-6.177 11.907-5.139 12.525-3.756 12.525-2.273 12.525-1.137 11.957-.52 10.82H-.42C.444 11.833 1.531 12.525 3.285 12.525 5.558 12.525 7.04 11.216 7.04 8.399V0H4.199V8.597C4.199 9.486 3.606 10.079 2.717 10.079H2.223C.889 10.079 0 9.189 0 7.855Z"
         fill="#231f20"
         id="path21" />
      <path
         transform="matrix(1,0,0,-1,445.3657,122.3826)"
         d="M0 0C-1.334 0-2.224-.889-2.224-2.223V-5.78C-2.224-7.114-1.334-8.004 0-8.004H.988C1.877-8.004 2.47-7.411 2.47-6.521V-1.482C2.47-.593 1.877 0 .988 0ZM5.311-1.778V-6.225C5.311-9.041 3.829-10.351 1.309-10.351-.321-10.351-1.359-9.733-2.125-8.868H-2.224V-15.118H-5.064V2.174H-2.471L-2.224 .865H-2.125C-1.359 1.729-.321 2.348 1.309 2.348 3.829 2.348 5.311 1.038 5.311-1.778"
         fill="#231f20"
         id="path22" />
      <path
         transform="matrix(1,0,0,-1,459.7651,130.3865)"
         d="M0 0C1.334 0 2.223 .89 2.223 2.224V10.178H5.063V-2.174H2.47L2.223-.864H2.124C1.358-1.729 .321-2.347-1.31-2.347-3.829-2.347-5.312-1.037-5.312 1.779V10.178H-2.471V1.482C-2.471 .593-1.878 0-.988 0Z"
         fill="#231f20"
         id="path23" />
      <path
         transform="matrix(1,0,0,-1,467.4956,120.2088)"
         d="M0 0H1.977V2.965L4.817 3.706V0H7.658V-2.347H4.817V-8.893C4.817-9.511 5.262-10.005 5.929-10.005H7.658V-12.352H5.78C2.939-12.352 1.977-10.894 1.977-8.275V-2.347H0Z"
         fill="#231f20"
         id="path24" />
      <path
         transform="matrix(1,0,0,-1,485.478,123.865)"
         d="M0 0C0 .89-.47 1.482-1.358 1.482H-3.212C-4.101 1.482-4.694 .89-4.694 0V-1.21H0ZM-4.694-3.408V-5.039C-4.694-5.929-4.101-6.521-3.212-6.521H-1.358C-.47-6.521 0-5.929 0-5.039V-4.742H2.841C2.841-7.411 1.68-8.868-2.224-8.868-6.127-8.868-7.535-7.411-7.535-4.742V-.296C-7.535 2.372-6.127 3.83-2.224 3.83 1.433 3.83 2.841 2.372 2.841-.296V-3.408Z"
         fill="#231f20"
         id="path25" />
      <path
         transform="matrix(1,0,0,-1,498.7163,122.6297)"
         d="M0 0H-1.556C-2.89 0-3.779-.889-3.779-2.223V-9.931H-6.62V2.421H-4.026L-3.779 1.112H-3.681C-2.692 2.348-1.433 2.915 0 2.421Z"
         fill="#231f20"
         id="path26" />
      <path
         transform="matrix(1,0,0,-1,513.5366,127.5945)"
         d="M0 0-2.47 .197C-4.471 .37-5.78 1.729-5.78 3.557V3.928C-5.78 6.102-4.372 7.56-.593 7.56 2.94 7.56 4.102 6.102 4.102 3.434H1.26V3.729C1.26 4.619 .791 5.212-.346 5.212H-1.457C-2.322 5.212-3.014 4.891-3.014 3.928-3.014 3.014-2.544 2.643-1.433 2.544L1.038 2.347C3.286 2.149 4.349 .691 4.349-1.137V-1.507C4.349-3.656 2.94-5.139-.84-5.139-4.866-5.139-6.027-3.682-6.027-1.013H-3.187V-1.31C-3.187-2.199-2.717-2.792-1.581-2.792H.025C.815-2.792 1.507-2.348 1.507-1.434 1.507-.568 1.161-.1 0 0"
         fill="#231f20"
         id="path27" />
      <path
         transform="matrix(1,0,0,-1,528.7026,123.865)"
         d="M0 0C0 .89-.47 1.482-1.605 1.482H-2.965C-3.854 1.482-4.447 .89-4.447 0V-5.039C-4.447-5.929-3.854-6.521-2.965-6.521H-1.605C-.47-6.521 0-5.929 0-5.039V-4.496H2.841V-4.742C2.841-7.411 1.68-8.868-2.1-8.868-5.88-8.868-7.288-7.411-7.288-4.742V-.296C-7.288 2.372-5.88 3.83-2.1 3.83 1.68 3.83 2.841 2.372 2.841-.296V-.543H0Z"
         fill="#231f20"
         id="path28" />
      <path
         transform="matrix(1,0,0,-1,0,182.282)"
         d="M534.95 62.073H537.791V49.721H534.95ZM534.95 67.015H537.791V64.173999H534.95Z"
         fill="#231f20"
         id="path29" />
      <path
         transform="matrix(1,0,0,-1,549.104,123.865)"
         d="M0 0C0 .89-.47 1.482-1.358 1.482H-3.212C-4.101 1.482-4.694 .89-4.694 0V-1.21H0ZM-4.694-3.408V-5.039C-4.694-5.929-4.101-6.521-3.212-6.521H-1.358C-.47-6.521 0-5.929 0-5.039V-4.742H2.841C2.841-7.411 1.68-8.868-2.224-8.868-6.127-8.868-7.535-7.411-7.535-4.742V-.296C-7.535 2.372-6.127 3.83-2.224 3.83 1.433 3.83 2.841 2.372 2.841-.296V-3.408Z"
         fill="#231f20"
         id="path30" />
      <path
         transform="matrix(1,0,0,-1,560.7866,122.3826)"
         d="M0 0C-1.334 0-2.224-.889-2.224-2.223V-10.178H-5.064V2.174H-2.471L-2.224 .865H-2.125C-1.359 1.729-.321 2.348 1.309 2.348 3.829 2.348 5.312 1.038 5.312-1.778V-10.178H2.47V-1.482C2.47-.593 1.877 0 .988 0Z"
         fill="#231f20"
         id="path31" />
      <path
         transform="matrix(1,0,0,-1,577.1626,123.865)"
         d="M0 0C0 .89-.47 1.482-1.605 1.482H-2.965C-3.854 1.482-4.447 .89-4.447 0V-5.039C-4.447-5.929-3.854-6.521-2.965-6.521H-1.605C-.47-6.521 0-5.929 0-5.039V-4.496H2.841V-4.742C2.841-7.411 1.68-8.868-2.1-8.868-5.88-8.868-7.288-7.411-7.288-4.742V-.296C-7.288 2.372-5.88 3.83-2.1 3.83 1.68 3.83 2.841 2.372 2.841-.296V-.543H0Z"
         fill="#231f20"
         id="path32" />
      <path
         transform="matrix(1,0,0,-1,590.8218,123.865)"
         d="M0 0C0 .89-.47 1.482-1.358 1.482H-3.212C-4.101 1.482-4.694 .89-4.694 0V-1.21H0ZM-4.694-3.408V-5.039C-4.694-5.929-4.101-6.521-3.212-6.521H-1.358C-.47-6.521 0-5.929 0-5.039V-4.742H2.841C2.841-7.411 1.68-8.868-2.224-8.868-6.127-8.868-7.535-7.411-7.535-4.742V-.296C-7.535 2.372-6.127 3.83-2.224 3.83 1.433 3.83 2.841 2.372 2.841-.296V-3.408Z"
         fill="#231f20"
         id="path33" />
      <path
         transform="matrix(1,0,0,-1,385.7554,89.9002)"
         d="M0 0C0 .89-.593 1.482-1.482 1.482H-3.212C-4.101 1.482-4.694 .89-4.694 0V-5.039C-4.694-5.929-4.101-6.521-3.212-6.521H-1.482C-.593-6.521 0-5.929 0-5.039ZM-7.535-4.742V-.296C-7.535 2.372-6.127 3.83-2.347 3.83 1.433 3.83 2.841 2.372 2.841-.296V-4.742C2.841-7.411 1.433-8.868-2.347-8.868-6.127-8.868-7.535-7.411-7.535-4.742"
         fill="#231f20"
         id="path34" />
      <path
         transform="matrix(1,0,0,-1,391.1382,86.2439)"
         d="M0 0H2.224V.865C2.224 3.483 3.187 4.941 6.027 4.941H8.028V2.595H6.176C5.509 2.595 5.064 2.101 5.064 1.482V0H8.028V-2.347H5.064V-12.352H2.224V-2.347H0Z"
         fill="#231f20"
         id="path35" />
      <path
         transform="matrix(1,0,0,-1,413.0474,93.308399)"
         d="M0 0C-1.581 0-2.545-.371-2.545-1.655-2.545-2.545-2.075-3.113-.89-3.113H-.47C1.211-3.113 2.248-1.977 2.248-.767V0ZM2.248 3.038C2.248 4.298 1.655 4.891 .396 4.891H-.47C-1.605 4.891-2.075 4.298-2.075 3.408V3.112H-4.916C-4.916 5.78-3.755 7.238 .024 7.238 3.681 7.238 5.089 5.657 5.089 2.741V-5.287H2.495L2.248-3.854H2.149C1.384-4.719 .47-5.46-1.358-5.46-3.903-5.46-5.336-4.076-5.336-1.878-5.336 .691-3.706 2.198 .148 2.198H2.248Z"
         fill="#231f20"
         id="path36" />
      <path
         transform="matrix(1,0,0,-1,427.3491,96.4216)"
         d="M0 0C1.334 0 2.223 .89 2.223 2.224V10.178H5.063V-2.174H2.47L2.223-.864H2.124C1.358-1.729 .321-2.347-1.31-2.347-3.829-2.347-5.312-1.037-5.312 1.779V10.178H-2.471V1.482C-2.471 .593-1.878 0-.988 0Z"
         fill="#231f20"
         id="path37" />
      <path
         transform="matrix(1,0,0,-1,435.0786,86.2439)"
         d="M0 0H1.977V2.965L4.817 3.706V0H7.658V-2.347H4.817V-8.893C4.817-9.511 5.262-10.005 5.929-10.005H7.658V-12.352H5.78C2.939-12.352 1.977-10.894 1.977-8.275V-2.347H0Z"
         fill="#231f20"
         id="path38" />
      <path
         transform="matrix(1,0,0,-1,453.062,89.9002)"
         d="M0 0C0 .89-.593 1.482-1.482 1.482H-3.212C-4.101 1.482-4.694 .89-4.694 0V-5.039C-4.694-5.929-4.101-6.521-3.212-6.521H-1.482C-.593-6.521 0-5.929 0-5.039ZM-7.535-4.742V-.296C-7.535 2.372-6.127 3.83-2.347 3.83 1.433 3.83 2.841 2.372 2.841-.296V-4.742C2.841-7.411 1.433-8.868-2.347-8.868-6.127-8.868-7.535-7.411-7.535-4.742"
         fill="#231f20"
         id="path39" />
      <path
         transform="matrix(1,0,0,-1,469.562,98.5955)"
         d="M0 0H-2.842V8.597C-2.842 9.486-3.435 10.079-4.323 10.079H-4.817C-6.151 10.079-7.041 9.189-7.041 7.855V0H-9.882V12.352H-7.288L-7.041 11.043H-6.942C-6.177 11.907-5.139 12.525-3.756 12.525-2.273 12.525-1.137 11.957-.52 10.82H-.42C.444 11.833 1.531 12.525 3.285 12.525 5.558 12.525 7.04 11.216 7.04 8.399V0H4.199V8.597C4.199 9.486 3.606 10.079 2.717 10.079H2.223C.889 10.079 0 9.189 0 7.855Z"
         fill="#231f20"
         id="path40" />
      <path
         transform="matrix(1,0,0,-1,485.3433,93.308399)"
         d="M0 0C-1.581 0-2.545-.371-2.545-1.655-2.545-2.545-2.075-3.113-.89-3.113H-.47C1.211-3.113 2.248-1.977 2.248-.767V0ZM2.248 3.038C2.248 4.298 1.655 4.891 .396 4.891H-.47C-1.605 4.891-2.075 4.298-2.075 3.408V3.112H-4.916C-4.916 5.78-3.755 7.238 .024 7.238 3.681 7.238 5.089 5.657 5.089 2.741V-5.287H2.495L2.248-3.854H2.149C1.384-4.719 .47-5.46-1.358-5.46-3.903-5.46-5.336-4.076-5.336-1.878-5.336 .691-3.706 2.198 .148 2.198H2.248Z"
         fill="#231f20"
         id="path41" />
      <path
         transform="matrix(1,0,0,-1,493.0981,86.2439)"
         d="M0 0H1.977V2.965L4.817 3.706V0H7.658V-2.347H4.817V-8.893C4.817-9.511 5.262-10.005 5.929-10.005H7.658V-12.352H5.78C2.939-12.352 1.977-10.894 1.977-8.275V-2.347H0Z"
         fill="#231f20"
         id="path42" />
      <path
         transform="matrix(1,0,0,-1,0,182.282)"
         d="M503.67 96.038H506.51103V83.686008H503.67ZM503.67 100.979H506.51103V98.13799H503.67Z"
         fill="#231f20"
         id="path43" />
      <path
         transform="matrix(1,0,0,-1,517.8237,89.9002)"
         d="M0 0C0 .89-.593 1.482-1.482 1.482H-3.212C-4.101 1.482-4.694 .89-4.694 0V-5.039C-4.694-5.929-4.101-6.521-3.212-6.521H-1.482C-.593-6.521 0-5.929 0-5.039ZM-7.535-4.742V-.296C-7.535 2.372-6.127 3.83-2.347 3.83 1.433 3.83 2.841 2.372 2.841-.296V-4.742C2.841-7.411 1.433-8.868-2.347-8.868-6.127-8.868-7.535-7.411-7.535-4.742"
         fill="#231f20"
         id="path44" />
      <path
         transform="matrix(1,0,0,-1,529.5063,88.417697)"
         d="M0 0C-1.334 0-2.224-.889-2.224-2.223V-10.178H-5.064V2.174H-2.471L-2.224 .865H-2.125C-1.359 1.729-.321 2.348 1.309 2.348 3.829 2.348 5.311 1.038 5.311-1.778V-10.178H2.47V-1.482C2.47-.593 1.877 0 .988 0Z"
         fill="#231f20"
         id="path45" />
      <path
         transform="matrix(1,0,0,-1,126.585,66.5838)"
         d="M0 0-38.476-.001V0 11.818H-70.897V-.001H-38.477V-59.534H-26.285V-18.384C-26.285-14.202-22.656-10.813-18.182-10.813H0Z"
         fill="#ffffff"
         id="path46" />
      <path
         transform="matrix(1,0,0,-1,169.4771,50.716096)"
         d="M0 0H-7.301V-4.834H-.503V-7.452H-7.301V-15.005H-10.322V2.619H0Z"
         fill="#ffffff"
         id="path47" />
      <path
         transform="matrix(1,0,0,-1,178.9155,51.9749)"
         d="M0 0H-.101L-2.342-6.672H2.215ZM7.704-13.747H4.557L3.071-9.29H-3.198L-4.683-13.747H-7.553L-1.485 3.877H1.636Z"
         fill="#ffffff"
         id="path48" />
      <path
         transform="matrix(1,0,0,-1,202.2261,60.358697)"
         d="M0 0V-1.083C0-3.625-1.737-5.363-4.28-5.363H-8.309C-10.851-5.363-12.588-3.625-12.588-1.083V7.981C-12.588 10.524-10.851 12.261-8.309 12.261H-4.28C-1.737 12.261 0 10.524 0 7.981V6.898H-3.021V8.132C-3.021 9.039-3.625 9.643-4.532 9.643H-8.057C-8.963 9.643-9.567 9.039-9.567 8.132V-1.234C-9.567-2.14-8.963-2.745-8.057-2.745H-4.532C-3.625-2.745-3.021-2.14-3.021-1.234V0Z"
         fill="#ffffff"
         id="path49" />
      <path
         transform="matrix(1,0,0,-1,216.3218,48.097398)"
         d="M0 0H3.021V-13.344C3.021-15.887 1.284-17.624-1.259-17.624H-5.791C-8.333-17.624-10.071-15.887-10.071-13.344V0H-7.05V-13.495C-7.05-14.401-6.445-15.006-5.539-15.006H-1.511C-.604-15.006 0-14.401 0-13.495Z"
         fill="#ffffff"
         id="path50" />
      <path
         transform="matrix(1,0,0,-1,234.1934,65.7215)"
         d="M0 0H-10.322V17.624H-7.301V2.618H0Z"
         fill="#ffffff"
         id="path51" />
      <path
         transform="matrix(1,0,0,-1,240.1079,50.716096)"
         d="M0 0H-5.036V2.619H8.057V0H3.021V-15.005H0Z"
         fill="#ffffff"
         id="path52" />
      <path
         transform="matrix(1,0,0,-1,257.4009,55.323495)"
         d="M0 0 4.104 7.226H7.251L1.259-2.92V-10.398H-1.762V-2.92L-7.478 7.226H-4.003L-.101 0Z"
         fill="#ffffff"
         id="path53" />
      <path
         transform="matrix(1,0,0,-1,169.2256,96.5925)"
         d="M0 0V9.366C0 10.272-.604 10.876-1.511 10.876H-5.539C-6.445 10.876-7.05 10.272-7.05 9.366V0C-7.05-.906-6.445-1.511-5.539-1.511H-1.511C-.604-1.511 0-.906 0 0M-5.791-4.129C-8.333-4.129-10.071-2.392-10.071 .151V9.215C-10.071 11.758-8.333 13.495-5.791 13.495H-1.259C1.284 13.495 3.021 11.758 3.021 9.215V.151C3.021-2.392 1.284-4.129-1.259-4.129Z"
         fill="#ffffff"
         id="path54" />
      <path
         transform="matrix(1,0,0,-1,187.0977,85.716098)"
         d="M0 0H-7.301V-4.834H-.503V-7.452H-7.301V-15.005H-10.322V2.619H0Z"
         fill="#ffffff"
         id="path55" />
      <path
         transform="matrix(1,0,0,-1,205.5728,94.3015)"
         d="M0 0H.101L4.985 11.204H7.88V-6.42H4.884V4.431H4.759L0-6.42H-.151L-4.884 4.431H-5.01V-6.42H-8.031V11.204H-4.884Z"
         fill="#ffffff"
         id="path56" />
      <path
         transform="matrix(1,0,0,-1,228.8071,85.716098)"
         d="M0 0H-7.805V-4.834H-.504V-7.452H-7.805V-12.387H.251V-15.005H-10.826V2.619H0Z"
         fill="#ffffff"
         id="path57" />
      <path
         transform="matrix(1,0,0,-1,245.4209,95.358699)"
         d="M0 0V-1.083C0-3.625-1.737-5.363-4.28-5.363H-8.309C-10.851-5.363-12.588-3.625-12.588-1.083V7.981C-12.588 10.524-10.851 12.261-8.309 12.261H-4.28C-1.737 12.261 0 10.524 0 7.981V6.898H-3.021V8.132C-3.021 9.039-3.625 9.643-4.532 9.643H-8.057C-8.963 9.643-9.567 9.039-9.567 8.132V-1.234C-9.567-2.14-8.963-2.745-8.057-2.745H-4.532C-3.625-2.745-3.021-2.14-3.021-1.234V0Z"
         fill="#ffffff"
         id="path58" />
      <path
         transform="matrix(1,0,0,-1,249.4463,100.7215)"
         d="M0 0V17.624H3.021V10.171H10.071V17.624H13.092V0H10.071V7.553H3.021V0Z"
         fill="#ffffff"
         id="path59" />
      <path
         transform="matrix(1,0,0,-1,273.1089,86.9749)"
         d="M0 0H-.101L-2.342-6.672H2.215ZM7.704-13.747H4.557L3.071-9.29H-3.198L-4.683-13.747H-7.553L-1.485 3.877H1.636Z"
         fill="#ffffff"
         id="path60" />
      <path
         transform="matrix(1,0,0,-1,283.8306,100.7215)"
         d="M0 0V17.624H3.021L9.97 5.564H10.07V17.624H13.092V0H10.07L3.122 12.06H3.021V0Z"
         fill="#ffffff"
         id="path61" />
      <path
         transform="matrix(1,0,0,-1,0,182.282)"
         d="M304.473 81.561H301.452V99.185H304.473Z"
         fill="#ffffff"
         id="path62" />
      <path
         transform="matrix(1,0,0,-1,321.5903,95.358699)"
         d="M0 0V-1.083C0-3.625-1.736-5.363-4.279-5.363H-8.308C-10.851-5.363-12.588-3.625-12.588-1.083V7.981C-12.588 10.524-10.851 12.261-8.308 12.261H-4.279C-1.736 12.261 0 10.524 0 7.981V6.898H-3.021V8.132C-3.021 9.039-3.625 9.643-4.531 9.643H-8.057C-8.963 9.643-9.566 9.039-9.566 8.132V-1.234C-9.566-2.14-8.963-2.745-8.057-2.745H-4.531C-3.625-2.745-3.021-2.14-3.021-1.234V0Z"
         fill="#ffffff"
         id="path63" />
      <path
         transform="matrix(1,0,0,-1,331.6577,86.9749)"
         d="M0 0H-.101L-2.341-6.672H2.216ZM7.704-13.747H4.558L3.072-9.29H-3.197L-4.683-13.747H-7.553L-1.485 3.877H1.637Z"
         fill="#ffffff"
         id="path64" />
      <path
         transform="matrix(1,0,0,-1,352.7026,100.7215)"
         d="M0 0H-10.322V17.624H-7.301V2.618H0Z"
         fill="#ffffff"
         id="path65" />
      <path
         transform="matrix(1,0,0,-1,169.981,120.3631)"
         d="M0 0H-7.805V-4.834H-.504V-7.452H-7.805V-12.388H.251V-15.005H-10.826V2.618H0Z"
         fill="#ffffff"
         id="path66" />
      <path
         transform="matrix(1,0,0,-1,174.0063,135.36789)"
         d="M0 0V17.623H3.021L9.97 5.563H10.071V17.623H13.092V0H10.071L3.122 12.059H3.021V0Z"
         fill="#ffffff"
         id="path67" />
      <path
         transform="matrix(1,0,0,-1,204.2153,131.0886)"
         d="M0 0C0-2.543-1.737-4.279-4.28-4.279H-8.309C-10.851-4.279-12.588-2.543-12.588 0V9.064C-12.588 11.607-10.851 13.344-8.309 13.344H-4.28C-1.737 13.344 0 11.607 0 9.064V7.981H-3.021V9.215C-3.021 10.121-3.625 10.726-4.532 10.726H-8.057C-8.963 10.726-9.567 10.121-9.567 9.215V-.15C-9.567-1.057-8.963-1.662-8.057-1.662H-4.532C-3.625-1.662-3.021-1.057-3.021-.15V2.015H-6.546V4.633H0Z"
         fill="#ffffff"
         id="path68" />
      <path
         transform="matrix(1,0,0,-1,0,182.282)"
         d="M211.765 46.914H208.744V64.537H211.765Z"
         fill="#ffffff"
         id="path69" />
      <path
         transform="matrix(1,0,0,-1,216.2949,135.36789)"
         d="M0 0V17.623H3.021L9.97 5.563H10.071V17.623H13.092V0H10.071L3.122 12.059H3.021V0Z"
         fill="#ffffff"
         id="path70" />
      <path
         transform="matrix(1,0,0,-1,244.7417,120.3631)"
         d="M0 0H-7.805V-4.834H-.504V-7.452H-7.805V-12.388H.251V-15.005H-10.826V2.618H0Z"
         fill="#ffffff"
         id="path71" />
      <path
         transform="matrix(1,0,0,-1,259.5933,120.3631)"
         d="M0 0H-7.805V-4.834H-.504V-7.452H-7.805V-12.388H.251V-15.005H-10.826V2.618H0Z"
         fill="#ffffff"
         id="path72" />
      <path
         transform="matrix(1,0,0,-1,266.6396,125.9519)"
         d="M0 0H4.784C5.69 0 6.294 .604 6.294 1.51V4.078C6.294 4.984 5.69 5.589 4.784 5.589H0ZM2.946-2.619H0V-9.416H-3.021V8.207H5.036C7.579 8.207 9.315 6.471 9.315 3.928V1.662C9.315-.479 8.082-2.039 6.194-2.492L9.819-9.416H6.496Z"
         fill="#ffffff"
         id="path73" />
      <path
         transform="matrix(1,0,0,-1,0,182.282)"
         d="M283.001 46.914H279.98V64.537H283.001Z"
         fill="#ffffff"
         id="path74" />
      <path
         transform="matrix(1,0,0,-1,287.5317,135.36789)"
         d="M0 0V17.623H3.021L9.97 5.563H10.07V17.623H13.092V0H10.07L3.122 12.059H3.021V0Z"
         fill="#ffffff"
         id="path75" />
      <path
         transform="matrix(1,0,0,-1,317.7407,131.0886)"
         d="M0 0C0-2.543-1.737-4.279-4.28-4.279H-8.309C-10.852-4.279-12.589-2.543-12.589 0V9.064C-12.589 11.607-10.852 13.344-8.309 13.344H-4.28C-1.737 13.344 0 11.607 0 9.064V7.981H-3.021V9.215C-3.021 10.121-3.626 10.726-4.532 10.726H-8.057C-8.964 10.726-9.567 10.121-9.567 9.215V-.15C-9.567-1.057-8.964-1.662-8.057-1.662H-4.532C-3.626-1.662-3.021-1.057-3.021-.15V2.015H-6.547V4.633H0Z"
         fill="#ffffff"
         id="path76" />
      <g
         inkscape:groupmode="layer"
         inkscape:label="Layer 1"
         id="g76" />
    </g>
  </g>
</svg>
